<?xml version="1.0" encoding="utf-8"?>
<!-- Generator: Adobe Illustrator 16.0.0, SVG Export Plug-In . SVG Version: 6.00 Build 0)  -->
<!DOCTYPE svg PUBLIC "-//W3C//DTD SVG 1.1//EN" "http://www.w3.org/Graphics/SVG/1.1/DTD/svg11.dtd">
<svg version="1.1" id="Layer_1" xmlns="http://www.w3.org/2000/svg" xmlns:xlink="http://www.w3.org/1999/xlink" x="0px" y="0px"
	 width="24px" height="24px" viewBox="0 0 24 24" enable-background="new 0 0 24 24" xml:space="preserve">
<g>
	<path fill="#030104" d="M18.371,12.06c0,1.795-0.762,3.516-2.092,4.723c-0.262,0.236-0.59,0.355-0.92,0.355
		c-0.369,0-0.74-0.152-1.01-0.449c-0.506-0.557-0.465-1.422,0.094-1.928c0.762-0.691,1.197-1.676,1.197-2.702
		c0-1.028-0.436-2.012-1.193-2.699c-0.559-0.506-0.602-1.37-0.094-1.929c0.506-0.56,1.369-0.602,1.928-0.095
		C17.609,8.541,18.371,10.262,18.371,12.06z M19.75,4.354c-0.531-0.535-1.396-0.536-1.932-0.005
		c-0.535,0.532-0.535,1.397-0.004,1.932c1.533,1.541,2.379,3.593,2.379,5.78c0,2.182-0.848,4.233-2.385,5.778
		c-0.531,0.533-0.529,1.4,0.006,1.932c0.266,0.266,0.615,0.396,0.963,0.396c0.352,0,0.703-0.133,0.967-0.402
		c2.049-2.061,3.18-4.797,3.18-7.704C22.924,9.147,21.797,6.41,19.75,4.354z M12,10.41c-0.913,0-1.649,0.736-1.649,1.65
		c0,0.911,0.737,1.651,1.65,1.651c0.914,0,1.65-0.74,1.65-1.651C13.65,11.146,12.912,10.41,12,10.41z M9.65,7.43
		C9.143,6.872,8.28,6.83,7.721,7.336c-1.331,1.208-2.094,2.929-2.094,4.724c0,1.799,0.762,3.52,2.091,4.723
		c0.262,0.236,0.589,0.354,0.917,0.354c0.372,0,0.742-0.152,1.012-0.449c0.507-0.559,0.463-1.424-0.096-1.93
		c-0.758-0.686-1.193-1.668-1.193-2.698c0-1.025,0.436-2.01,1.198-2.701C10.115,8.852,10.157,7.988,9.65,7.43z M3.806,12.06
		c0-2.181,0.847-4.231,2.383-5.777c0.532-0.534,0.531-1.399-0.004-1.93C5.651,3.82,4.788,3.822,4.254,4.357
		c-2.05,2.059-3.179,4.796-3.179,7.703c0,2.913,1.127,5.649,3.174,7.708c0.267,0.268,0.617,0.4,0.967,0.4
		c0.35,0,0.697-0.131,0.964-0.398c0.534-0.529,0.536-1.395,0.004-1.928C4.652,16.299,3.806,14.246,3.806,12.06z"/>
</g>
</svg>
