<?xml version="1.0" encoding="utf-8"?>
<!-- Generator: Adobe Illustrator 16.0.0, SVG Export Plug-In . SVG Version: 6.00 Build 0)  -->
<!DOCTYPE svg PUBLIC "-//W3C//DTD SVG 1.1//EN" "http://www.w3.org/Graphics/SVG/1.1/DTD/svg11.dtd">
<svg version="1.1" id="Layer_1" xmlns="http://www.w3.org/2000/svg" xmlns:xlink="http://www.w3.org/1999/xlink" x="0px" y="0px"
	 width="512px" height="512px" viewBox="0 0 512 512" enable-background="new 0 0 512 512" xml:space="preserve">
<path fill="#010101" d="M361.634,337.925c0-58.35-47.184-105.533-105.534-105.533c-58.35,0-105.534,47.184-105.534,105.533v60.305
	h211.067V337.925z"/>
<line fill="none" stroke="#000000" stroke-width="40" stroke-linecap="round" stroke-miterlimit="10" x1="150.566" y1="436.887" x2="361.634" y2="436.887"/>
<path fill="none" stroke="#FFFFFF" stroke-width="30" stroke-linecap="round" stroke-miterlimit="10" d="M190.798,318.305
	c0,0,1.126-21.631,19.16-35.821c14.454-11.373,36.661-11.19,36.661-11.19"/>
<path fill="none" stroke="#000000" stroke-width="20" stroke-linecap="round" stroke-miterlimit="10" d="M117.112,137.157
	c62.816,62.818,148.368,57.433,147.363-59.229"/>
<path fill="none" stroke="#000000" stroke-width="20" stroke-linecap="round" stroke-miterlimit="10" d="M57.951,246.201
	c89.74,33.36,108.775-5.013,59.161-109.044"/>
<path fill="none" stroke="#000000" stroke-width="20" stroke-linecap="round" stroke-miterlimit="10" d="M108.536,332.017
	c0,0,7.835-45.131-50.585-85.816"/>
<path fill="none" stroke="#000000" stroke-width="20" stroke-linecap="round" stroke-miterlimit="10" d="M402.483,137.157
	c-60.29,62.818-138.975,57.433-138.009-59.229"/>
<path fill="none" stroke="#000000" stroke-width="20" stroke-linecap="round" stroke-miterlimit="10" d="M457.833,237.397
	c-81.495,18.259-102.969,3.79-55.35-100.241"/>
<path fill="none" stroke="#000000" stroke-width="20" stroke-linecap="round" stroke-miterlimit="10" d="M402.483,332.017
	c0,0-0.721-53.934,55.35-94.62"/>
</svg>
