<?xml version="1.0" encoding="utf-8"?>
<!-- Generator: Adobe Illustrator 16.0.0, SVG Export Plug-In . SVG Version: 6.00 Build 0)  -->
<!DOCTYPE svg PUBLIC "-//W3C//DTD SVG 1.1//EN" "http://www.w3.org/Graphics/SVG/1.1/DTD/svg11.dtd">
<svg version="1.1" id="Layer_1" xmlns="http://www.w3.org/2000/svg" xmlns:xlink="http://www.w3.org/1999/xlink" x="0px" y="0px"
	 width="24px" height="24px" viewBox="0 0 24 24" enable-background="new 0 0 24 24" xml:space="preserve">
<path d="M15.853,8.188c-0.229,0-0.451-0.094-0.651-0.24c-0.115-0.083-0.38-0.294-0.606-0.293c-0.254,0-0.849-0.002-1.209-0.003
	c-0.175-0.001-0.189,0.212-0.128,0.317c0.533,0.917,1.478,1.698,2.591,1.701"/>
<path d="M10.703,7.93c0.06-0.105,0.044-0.318-0.131-0.316c-0.36,0.004-0.956,0.012-1.209,0.013C9.137,7.628,8.874,7.841,8.76,7.925
	C8.561,8.072,8.339,8.167,8.109,8.17L5.396,8.198c-0.885,0.01-1.608-1.02-1.618-1.879c0-0.01,0.001-0.021,0.001-0.031
	c0-0.01-0.001-0.021-0.001-0.031c-0.001-0.858,0.708-1.898,1.592-1.9L8.085,4.35c0.229,0,0.451,0.093,0.652,0.236
	c0.115,0.083,0.382,0.293,0.608,0.291c0.254-0.001,0.849-0.002,1.209-0.003c0.175,0.001,0.188-0.213,0.126-0.317
	c-0.538-0.915-1.486-1.691-2.6-1.688L5.368,2.875C3.756,2.879,2.292,4.492,2.297,6.26c0,0.013,0,0.025,0,0.038s0,0.025,0,0.038
	c0.019,1.768,1.504,3.363,3.115,3.345l2.714-0.028C9.238,9.64,10.177,8.851,10.703,7.93z"/>
<path d="M10.729,17.751c0.06-0.105,0.044-0.318-0.131-0.316c-0.36,0.004-0.956,0.012-1.209,0.013
	c-0.227,0.002-0.489,0.215-0.604,0.299c-0.199,0.147-0.421,0.242-0.65,0.245L5.422,18.02c-0.885,0.01-1.608-1.02-1.618-1.879
	c0-0.01,0.001-0.021,0.001-0.031c0-0.01-0.001-0.021-0.001-0.031c-0.001-0.858,0.708-1.898,1.592-1.9l2.714-0.007
	c0.229,0,0.451,0.093,0.652,0.235c0.115,0.084,0.382,0.293,0.608,0.291c0.254-0.001,0.849-0.002,1.209-0.003
	c0.175,0.001,0.188-0.213,0.126-0.317c-0.538-0.914-1.486-1.69-2.6-1.688l-2.713,0.006c-1.612,0.006-3.076,1.618-3.071,3.387
	c0,0.012,0,0.025,0,0.037s0,0.025,0,0.037c0.019,1.769,1.504,3.363,3.115,3.346l2.714-0.028
	C9.265,19.461,10.203,18.672,10.729,17.751z"/>
<path d="M15.864,6.57V5.987c0-0.195-0.158-0.354-0.354-0.354l-7.02-0.006c-0.195,0-0.354,0.158-0.354,0.354l0,0.583
	c0,0.194,0.159,0.354,0.354,0.354l7.021,0.007C15.705,6.923,15.864,6.765,15.864,6.57z"/>
<path d="M15.864,16.392v-0.584c0-0.195-0.158-0.354-0.354-0.354l-7.02-0.007c-0.195,0-0.354,0.158-0.354,0.354l0,0.583
	c0,0.194,0.159,0.354,0.354,0.354l7.021,0.008C15.705,16.745,15.864,16.587,15.864,16.392z"/>
<path d="M17.713,7.368l-0.584,0.002c-0.195,0.001-0.353,0.16-0.352,0.355l0.025,7.02c0.001,0.195,0.16,0.354,0.355,0.354
	l0.582-0.004c0.195,0,0.354-0.16,0.354-0.354l-0.025-7.021C18.066,7.526,17.908,7.367,17.713,7.368z"/>
<path d="M18.562,9.678L18.562,9.678c1.612,0.004,3.084-1.602,3.089-3.37c0-0.013,0-0.025,0-0.038s0-0.025,0-0.038
	c-0.01-1.768-1.486-3.37-3.098-3.361l-2.714,0.015c-1.112,0.007-2.055,0.791-2.586,1.709c-0.061,0.104-0.046,0.318,0.129,0.317
	c0.36-0.002,0.956-0.006,1.209-0.006c0.227,0,0.49-0.212,0.605-0.296c0.2-0.146,0.422-0.24,0.651-0.241l2.714-0.015
	c0.885-0.005,1.603,1.028,1.607,1.888c0,0.01-0.001,0.021-0.001,0.031s0.001,0.021,0.001,0.031
	c-0.003,0.859-0.718,1.895-1.603,1.892l0,0"/>
<path d="M18.562,9.678"/>
<path d="M15.853,14.145c-0.229,0.001-0.451,0.092-0.651,0.232c-0.115,0.083-0.38,0.288-0.606,0.287
	c-0.254,0-0.849,0.002-1.209,0.003c-0.175,0.002-0.189-0.207-0.128-0.309c0.533-0.893,1.478-1.654,2.591-1.657"/>
<path d="M18.562,12.693L18.562,12.693c1.612-0.004,3.084,1.56,3.089,3.282c0,0.013,0,0.024,0,0.037c0,0.012,0,0.023,0,0.037
	c-0.01,1.722-1.486,3.283-3.098,3.273l-2.714-0.013c-1.112-0.009-2.055-0.771-2.586-1.666c-0.061-0.102-0.046-0.31,0.129-0.309
	c0.36,0.002,0.956,0.005,1.209,0.005c0.227,0.001,0.49,0.208,0.605,0.291c0.2,0.141,0.422,0.232,0.651,0.233l2.714,0.015
	c0.885,0.004,1.603-1.003,1.607-1.84c0-0.009-0.001-0.019-0.001-0.029s0.001-0.021,0.001-0.03c-0.003-0.836-0.718-1.846-1.603-1.843
	l0,0"/>
</svg>
