<?xml version="1.0" encoding="utf-8"?>
<!-- Generator: Adobe Illustrator 16.0.0, SVG Export Plug-In . SVG Version: 6.00 Build 0)  -->
<!DOCTYPE svg PUBLIC "-//W3C//DTD SVG 1.1//EN" "http://www.w3.org/Graphics/SVG/1.1/DTD/svg11.dtd">
<svg version="1.1" id="Layer_1" xmlns="http://www.w3.org/2000/svg" xmlns:xlink="http://www.w3.org/1999/xlink" x="0px" y="0px"
	 width="24px" height="24px" viewBox="0 0 24 24" enable-background="new 0 0 24 24" xml:space="preserve">
<path fill="none" stroke="#000000" stroke-miterlimit="10" d="M7.004,8.698c-1.82,0-3.302,1.481-3.302,3.302
	c0,1.821,1.481,3.301,3.302,3.301c1.821,0,3.302-1.48,3.302-3.301C10.306,10.179,8.825,8.698,7.004,8.698z"/>
<path d="M12.45,8.482v7.033c0,0.457-0.201,0.828-0.45,0.828c-0.249,0-0.45-0.371-0.45-0.828V8.482c0-0.458,0.201-0.828,0.45-0.828
	C12.249,7.655,12.45,8.025,12.45,8.482z"/>
<path fill="none" stroke="#000000" stroke-miterlimit="10" d="M16.912,8.513c-1.822,0-3.303,1.481-3.303,3.302
	c0,1.82,1.48,3.3,3.303,3.3c1.82,0,3.301-1.48,3.301-3.3C20.213,9.994,18.732,8.513,16.912,8.513z"/>
<path d="M22.592,8.482v7.033c0,0.457-0.201,0.828-0.451,0.828c-0.248,0-0.449-0.371-0.449-0.828V8.482
	c0-0.458,0.201-0.828,0.449-0.828C22.391,7.655,22.592,8.025,22.592,8.482z"/>
<path d="M2.309,8.483v7.032c0,0.459-0.201,0.828-0.45,0.828c-0.249,0-0.45-0.369-0.45-0.828V8.483c0-0.458,0.201-0.828,0.45-0.828
	C2.108,7.656,2.309,8.026,2.309,8.483z"/>
</svg>
