<?xml version="1.0" encoding="utf-8"?>
<!-- Generator: Adobe Illustrator 16.0.0, SVG Export Plug-In . SVG Version: 6.00 Build 0)  -->
<!DOCTYPE svg PUBLIC "-//W3C//DTD SVG 1.1//EN" "http://www.w3.org/Graphics/SVG/1.1/DTD/svg11.dtd">
<svg version="1.1" id="Layer_1" xmlns="http://www.w3.org/2000/svg" xmlns:xlink="http://www.w3.org/1999/xlink" x="0px" y="0px"
	 width="24px" height="24px" viewBox="0 0 24 24" enable-background="new 0 0 24 24" xml:space="preserve">
<path d="M2.401,10.815c1.301-0.781,2.639-1.727,4.044-2.054c1.089-0.253,2.136,0.184,3.148,0.722
	c1.597,0.849,3.134,1.907,4.732,2.747c1.013,0.531,2.035,0.879,3.113,0.609c1.359-0.338,2.662-1.267,3.924-2.023
	c0.14-0.083,0.173-0.875,0.191-1.042c0.007-0.059,0.064-1.088,0.044-1.076c-1.301,0.78-2.639,1.727-4.044,2.054
	c-1.089,0.253-2.136-0.184-3.148-0.722c-1.597-0.849-3.134-1.908-4.732-2.746c-1.013-0.532-2.035-0.88-3.113-0.611
	C5.201,7.012,3.898,7.94,2.637,8.697C2.497,8.781,2.464,9.572,2.445,9.74C2.438,9.798,2.382,10.827,2.401,10.815z"/>
<path d="M2.401,14.823c1.301-0.779,2.639-1.726,4.044-2.053c1.089-0.254,2.136,0.184,3.148,0.722
	c1.597,0.849,3.134,1.907,4.732,2.746c1.013,0.531,2.035,0.88,3.113,0.61c1.359-0.34,2.662-1.269,3.924-2.025
	c0.14-0.083,0.173-0.874,0.191-1.041c0.007-0.06,0.064-1.088,0.044-1.076c-1.301,0.78-2.639,1.727-4.044,2.054
	c-1.089,0.252-2.136-0.185-3.148-0.722c-1.597-0.849-3.134-1.907-4.732-2.747c-1.013-0.531-2.035-0.879-3.113-0.611
	c-1.359,0.34-2.662,1.268-3.924,2.025c-0.14,0.083-0.173,0.875-0.191,1.042C2.438,13.807,2.382,14.837,2.401,14.823z"/>
<path d="M2.401,19.09c1.301-0.78,2.639-1.727,4.044-2.053c1.089-0.252,2.136,0.183,3.148,0.723c1.597,0.848,3.134,1.907,4.732,2.745
	c1.013,0.531,2.035,0.879,3.113,0.61c1.359-0.339,2.662-1.268,3.924-2.025c0.14-0.082,0.173-0.874,0.191-1.041
	c0.007-0.06,0.064-1.088,0.044-1.075c-1.301,0.78-2.639,1.726-4.044,2.052c-1.089,0.254-2.136-0.183-3.148-0.722
	c-1.597-0.847-3.134-1.907-4.732-2.745c-1.013-0.531-2.035-0.88-3.113-0.61c-1.359,0.339-2.662,1.267-3.924,2.025
	c-0.14,0.083-0.173,0.873-0.191,1.04C2.438,18.073,2.382,19.104,2.401,19.09z"/>
<path d="M2.401,7.064c1.301-0.78,2.639-1.727,4.044-2.053c1.089-0.253,2.136,0.183,3.148,0.721c1.597,0.849,3.134,1.908,4.732,2.747
	c1.013,0.531,2.035,0.88,3.113,0.611c1.359-0.339,2.662-1.267,3.924-2.025c0.14-0.083,0.173-0.874,0.191-1.042
	c0.007-0.058,0.064-1.088,0.044-1.076C20.298,5.727,18.96,6.674,17.555,7c-1.089,0.253-2.136-0.184-3.148-0.722
	C12.81,5.43,11.272,4.371,9.674,3.532c-1.013-0.531-2.035-0.88-3.113-0.611C5.201,3.26,3.898,4.189,2.637,4.946
	C2.497,5.03,2.464,5.821,2.445,5.988C2.438,6.047,2.382,7.077,2.401,7.064z"/>
</svg>
